# File created by Blade
# Date/Time:  Tue Sep 30 19:06:56 2014
#---------------------------------------------------------
:version 1.10
:name HOM
:units
  mass 1.0
  length 1.000000
  angle deg
:documentation
     Acclaim Skeleton File
:root
   axis xyz
   order TX TY TZ RX RY RZ
   position 0.000000 0.000000 0.000000
   orientation 0 0 0
:bonedata
   begin
      id 1
      name Spine_dum
      direction 0.000000 1.000000 0.000000
      length 7.508948
      axis 0.0 0.0 0.0 xyz
   end
   begin
      id 2
      name LeftUpLeg_dum
      direction 1.000000 0.000000 0.000000
      length 3.000560
      axis 0.0 0.0 0.0 xyz
   end
   begin
      id 3
      name RightUpLeg_dum
      direction -1.000000 0.000000 0.000000
      length 3.000560
      axis 0.0 0.0 0.0 xyz
   end
   begin
      id 4
      name Spine
      direction 0.000000 1.000000 0.000000
      length 0.000000
      axis 0.0 0.0 0.0 xyz
      dof rx ry rz
   end
   begin
      id 5
      name Spine_dum1
      direction 0.000000 1.000000 0.000000
      length 13.861154
      axis 0.0 0.0 0.0 xyz
   end
   begin
      id 6
      name Spine_dum2
      direction 0.000000 1.000000 0.000000
      length 8.204781
      axis 0.0 0.0 0.0 xyz
   end
   begin
      id 7
      name Spine_dum3
      direction 0.000000 1.000000 0.000000
      length 8.204781
      axis 0.0 0.0 0.0 xyz
   end
   begin
      id 8
      name Head
      direction 0.000000 1.000000 0.000000
      length 4.527550
      axis 0.0 0.0 0.0 xyz
      dof rx ry rz
   end
   begin
      id 9
      name LeftShoulder
      direction 1.000000 0.000000 0.000000
      length 6.635956
      axis 0.0 0.0 -90.0 xyz
      dof rx ry rz
   end
   begin
      id 10
      name LeftArm
      direction 1.000000 0.000000 0.000000
      length 10.274218
      axis 0.0 0.0 -90.0 xyz
      dof rx ry rz
   end
   begin
      id 11
      name LeftForeArm
      direction 1.000000 0.000000 0.000000
      length 8.522147
      axis 0.0 0.0 -90.0 xyz
      dof ry rz rx
   end
   begin
      id 12
      name LeftHand
      direction 0.000000 0.000000 0.000000
      length 0.000000
      axis 0.0 0.0 -90.0 xyz
      dof rx ry rz
   end
   begin
      id 13
      name LeftHand_dum1
      direction 0.000000 0.000000 0.000000
      length 0.000000
      axis 0.0 0.0 -90.0 xyz
   end
   begin
      id 14
      name LeftHand_dum2
      direction 1.000000 0.000000 0.000000
      length 3.937000
      axis 0.0 0.0 -90.0 xyz
   end
   begin
      id 15
      name LeftHandThumb1
      direction 0.000000 0.000000 1.000000
      length 3.937000
      axis 0.0 0.0 -90.0 xyz
      dof rx rz ry
   end
   begin
      id 16
      name RightShoulder
      direction -1.000000 0.000000 0.000000
      length 6.635956
      axis 0.0 0.0 90.0 xyz
      dof rx ry rz
   end
   begin
      id 17
      name RightArm
      direction -1.000000 0.000000 0.000000
      length 10.274218
      axis 0.0 0.0 90.0 xyz
      dof rx ry rz
   end
   begin
      id 18
      name RightForeArm
      direction -1.000000 0.000000 0.000000
      length 8.522147
      axis 0.0 0.0 90.0 xyz
      dof ry rz rx
   end
   begin
      id 19
      name RightHand
      direction 0.000000 0.000000 0.000000
      length 0.000000
      axis 0.0 0.0 90.0 xyz
      dof rx ry rz
   end
   begin
      id 20
      name RightHand_dum1
      direction 0.000000 0.000000 0.000000
      length 0.000000
      axis 0.0 0.0 90.0 xyz
   end
   begin
      id 21
      name RightHand_dum2
      direction -1.000000 0.000000 0.000000
      length 3.937000
      axis 0.0 0.0 90.0 xyz
   end
   begin
      id 22
      name RightHandThumb1
      direction 0.000000 0.000000 1.000000
      length 3.937000
      axis 0.0 0.0 90.0 xyz
      dof rx rz ry
   end
   begin
      id 23
      name LeftUpLeg
      direction 0.000000 -1.000000 0.000000
      length 16.490845
      axis 0.0 0.0 0.0 xyz
      dof rx ry rz
   end
   begin
      id 24
      name LeftLeg
      direction 0.000000 -1.000000 0.000000
      length 14.556576
      axis 0.0 0.0 0.0 xyz
      dof rx ry rz
   end
   begin
      id 25
      name LeftFoot
      direction 0.000000 -0.258819 0.965926
      length 4.831116
      axis 15.0 0.0 0.0 xyz
      dof rx ry rz
   end
   begin
      id 26
      name LeftToeBase
      direction 0.000000 0.000000 1.000000
      length 2.952750
      axis 0.0 0.0 0.0 xyz
      dof rx ry rz
   end
   begin
      id 27
      name RightUpLeg
      direction 0.000000 -1.000000 0.000000
      length 16.490845
      axis 0.0 0.0 0.0 xyz
      dof rx ry rz
   end
   begin
      id 28
      name RightLeg
      direction 0.000000 -1.000000 0.000000
      length 14.556576
      axis 0.0 0.0 0.0 xyz
      dof rx ry rz
   end
   begin
      id 29
      name RightFoot
      direction 0.000000 -0.258819 0.965926
      length 4.831116
      axis 15.0 0.0 0.0 xyz
      dof rx ry rz
   end
   begin
      id 30
      name RightToeBase
      direction 0.000000 0.000000 1.000000
      length 2.952750
      axis 0.0 0.0 0.0 xyz
      dof rx ry rz
   end
:hierarchy
   begin
      root Spine_dum LeftUpLeg_dum RightUpLeg_dum
      Spine_dum Spine
      LeftUpLeg_dum LeftUpLeg
      RightUpLeg_dum RightUpLeg
      Spine Spine_dum1 Spine_dum2 Spine_dum3
      Spine_dum1 Head
      Spine_dum2 LeftShoulder
      Spine_dum3 RightShoulder
      LeftShoulder LeftArm
      LeftArm LeftForeArm
      LeftForeArm LeftHand
      LeftHand LeftHand_dum1 LeftHand_dum2
      LeftHand_dum1 LeftHandThumb1
      RightShoulder RightArm
      RightArm RightForeArm
      RightForeArm RightHand
      RightHand RightHand_dum1 RightHand_dum2
      RightHand_dum1 RightHandThumb1
      LeftUpLeg LeftLeg
      LeftLeg LeftFoot
      LeftFoot LeftToeBase
      RightUpLeg RightLeg
      RightLeg RightFoot
      RightFoot RightToeBase
   end

# File created by Blade
# Date/Time:  Thu Sep 25 19:04:16 2014
# Frame Rate: 120.000 fps
#------------------------------------------------------
:FULLY-SPECIFIED
:DEGREES
296
root -1.337813 30.711175 -2.881950 13.930740 3.269183 -7.339712
Spine -14.834465 1.819750 2.048334
Head -8.766803 -2.877201 6.488894
LeftShoulder -14.143226 15.977139 26.720152
LeftArm 18.515574 -27.594408 -29.626546
LeftForeArm 8.954354 0.000000 14.910651
LeftHand -25.979057 0.000000 -6.492977
LeftHandThumb1 -26.253704 0.000000 33.147579
RightShoulder -20.976082 14.429614 -38.756687
RightArm -10.793344 9.152449 30.709732
RightForeArm -27.396519 -0.000000 15.563755
RightHand -9.162589 0.000000 6.270590
RightHandThumb1 -24.326973 -0.000000 -32.862282
LeftUpLeg -7.753843 16.953763 29.561090
LeftLeg -1.542598 -0.000000 0.000000
LeftFoot -3.910370 6.784240 -36.372780
LeftToeBase 9.512496 -0.000000 -0.000000
RightUpLeg -5.925346 -12.559177 -10.571724
RightLeg 0.223993 -0.000000 -0.000000
RightFoot -5.867917 -6.944196 18.354966
RightToeBase 2.517035 -0.000000 -0.000000
297
root -1.331697 30.709271 -2.911342 13.979696 3.445974 -7.408108
Spine -14.735140 1.712623 1.976329
Head -8.828544 -2.927111 6.652223
LeftShoulder -14.007980 15.700742 26.921924
LeftArm 18.195589 -27.892674 -29.390259
LeftForeArm 9.132643 -0.000000 15.304643
LeftHand -26.200601 -0.000000 -6.060232
LeftHandThumb1 -26.253704 0.000000 33.147579
RightShoulder -21.060364 14.453446 -38.735271
RightArm -10.950664 9.323573 30.812864
RightForeArm -27.563179 0.000000 15.500866
RightHand -9.202026 -0.000000 6.483066
RightHandThumb1 -24.326973 -0.000000 -32.862282
LeftUpLeg -7.897037 16.931524 29.618396
LeftLeg -1.648905 -0.000000 0.000000
LeftFoot -3.780322 6.674690 -36.460223
LeftToeBase 9.462094 -0.000000 -0.000000
RightUpLeg -6.001254 -12.755701 -10.460740
RightLeg 0.251925 -0.000000 -0.000000
RightFoot -5.833653 -6.906465 18.342500
RightToeBase 2.513178 -0.000000 -0.000000
298
root -1.322794 30.704589 -2.941998 14.035015 3.636643 -7.455870
Spine -14.626754 1.535875 1.885366
Head -8.940006 -2.976568 6.748399
LeftShoulder -14.040153 15.661963 26.996225
LeftArm 18.187588 -28.303006 -29.205905
LeftForeArm 8.989678 0.000000 15.586746
LeftHand -26.381011 -0.000000 -5.322455
LeftHandThumb1 -26.253704 0.000000 33.147579
RightShoulder -21.088425 14.513017 -38.718365
RightArm -11.156182 9.282079 30.922201
RightForeArm -27.515010 0.000000 15.456022
RightHand -9.213041 -0.000000 6.546694
RightHandThumb1 -24.326973 -0.000000 -32.862282
LeftUpLeg -8.041321 16.897110 29.658176
LeftLeg -1.798846 -0.000000 0.000000
LeftFoot -3.651707 6.563294 -36.667937
LeftToeBase 9.480419 -0.000000 -0.000000
RightUpLeg -6.064198 -13.000457 -10.371078
RightLeg 0.245713 -0.000000 -0.000000
RightFoot -5.770136 -6.850528 18.297228
RightToeBase 2.478152 -0.000000 -0.000000
299
root -1.314402 30.698921 -2.973175 14.089805 3.825698 -7.525344
Spine -14.516837 1.422886 1.776675
Head -9.004181 -3.072317 6.843017
LeftShoulder -13.930193 15.537073 27.127058
LeftArm 18.026694 -28.719896 -29.004897
LeftForeArm 9.095060 -0.000000 15.966362
LeftHand -26.663671 -0.000000 -4.850727
LeftHandThumb1 -26.253704 0.000000 33.147579
RightShoulder -21.152785 14.507988 -38.700463
RightArm -11.354961 9.409717 31.008913
RightForeArm -27.574894 -0.000000 15.427467
RightHand -9.151422 -0.000000 6.646474
RightHandThumb1 -24.326973 -0.000000 -32.862282
LeftUpLeg -8.181146 16.921052 29.711107
LeftLeg -1.935475 -0.000000 0.000000
LeftFoot -3.470434 6.356724 -36.704603
LeftToeBase 9.376734 -0.000000 -0.000000
RightUpLeg -6.124126 -13.132877 -10.270090
RightLeg 0.234972 -0.000000 -0.000000
RightFoot -5.756807 -6.886125 18.324103
RightToeBase 2.495251 -0.000000 -0.000000
